<svg width="152" height="23" viewBox="0 0 152 23" fill="none" xmlns="http://www.w3.org/2000/svg"><g fill="#E0AE2E"><path d="M1.5 1.5V9.5C1.5 17.3 13.5 17.3 13.5 9.5V1.5"/><path d="M92.5 1.5V16.5C92.5 23 102.5 23 102.5 16.5V1.5"/><path d="M137 1.5V5C137 13.45 150 13.45 150 5V1.5"/></g><g stroke="#121210" stroke-width="3" stroke-linecap="round" stroke-linejoin="round"><path d="M1.5 1.5V9.5C1.5 17.3 13.5 17.3 13.5 9.5V1.5"/><path d="M92.5 1.5V16.5C92.5 23 102.5 23 102.5 16.5V1.5"/><path d="M137 1.5V5C137 13.45 150 13.45 150 5V1.5"/></g></svg>
