<svg width="239" height="25" viewBox="0 0 239 25" fill="none" xmlns="http://www.w3.org/2000/svg"><path d="M9.5 1.5H229.5C235.5 1.5 237.5 4.04 237.5 7.2C237.5 11.01 233.5 11.64 233.5 15.44C233.5 19.25 237.5 20.51 237.5 23.05H1.5C1.5 20.51 5.5 19.25 5.5 15.44C5.5 11.64 1.5 11.01 1.5 7.2C1.5 4.04 3.5 1.5 9.5 1.5Z" fill="#E0AE2E" stroke="#121210" stroke-width="3"/><g stroke="#F3E9D2" stroke-width="1.6" stroke-linecap="round"><path d="M215.801 14.2059C219.088 11.997 221.28 12.795 222.379 16.6001"/><path d="M195.069 15.0643C195.49 11.1264 197.511 9.95969 201.131 11.5643"/><path d="M172.118 15.7756C174.163 12.3844 176.488 12.1811 179.091 15.1655"/><path d="M149.945 11.2506C153.692 9.96769 155.603 11.306 155.679 15.2657"/><path d="M128.622 16.6C129.72 12.7949 131.912 11.9969 135.199 14.2058"/><path d="M105.809 12.5287C108.891 10.0416 111.144 10.6455 112.57 14.3404"/><path d="M85.3214 17.2658C85.3973 13.3061 87.3087 11.9678 91.0555 13.2507"/><path d="M62.2615 14.0647C64.0037 10.5081 66.3016 10.103 69.1551 12.8492"/><path d="M39.8688 13.5643C43.4896 11.9597 45.5103 13.1264 45.931 17.0643"/><path d="M18.8351 14.8421C19.5974 10.9558 21.7121 9.96973 25.1792 11.8838"/></g></svg>
