<svg width="33" height="130" viewBox="0 0 33 130" fill="none" xmlns="http://www.w3.org/2000/svg"><path d="M29.0996 2V4.00977C29.0996 16.3297 28.7688 25.2286 28.4385 33.4229C28.1082 41.6146 27.7803 49.0771 27.7803 58.5801C27.7803 70.7931 28.3815 81.0559 28.9854 89.9482C29.5871 98.8092 30.2002 106.408 30.2002 113.15C30.2 120.935 23.884 127.25 16.0996 127.25C8.31535 127.25 2.00021 120.935 2 113.15C2 106.408 2.61309 98.8092 3.21484 89.9482C3.81873 81.0559 4.41992 70.7931 4.41992 58.5801C4.41992 49.0771 4.09199 41.6146 3.76172 33.4229C3.43135 25.2286 3.09961 16.3297 3.09961 4.00977V2H29.0996Z" fill="#F3E9D2" stroke="#121210" stroke-width="4"/></svg>
